<svg id="SvgjsSvg1026" xmlns="http://www.w3.org/2000/svg" version="1.1" xmlns:xlink="http://www.w3.org/1999/xlink" xmlns:svgjs="http://svgjs.com/svgjs" width="108" height="38"><defs id="SvgjsDefs1027"></defs><path id="SvgjsPath1028" d="M1090.87 2352.3L1092.8 2352.3L1088.9099999999999 2361.7200000000003C1088.0199999999998 2363.88 1086.84 2364.61 1085.58 2364.61C1085.22 2364.61 1084.85 2364.55 1084.49 2364.4700000000003L1084.49 2362.8900000000003C1084.77 2362.9800000000005 1085.06 2363.0200000000004 1085.34 2363.0200000000004C1086.24 2363.0200000000004 1086.9099999999999 2362.3800000000006 1087.3899999999999 2361.0800000000004L1087.57 2360.6700000000005L1083.6299999999999 2352.3000000000006L1085.6 2352.3000000000006L1088.3999999999999 2358.560000000001ZM1069.66 2360.6L1069.66 2352.2999999999997L1071.3000000000002 2352.2999999999997L1071.3000000000002 2353.3399999999997C1071.7500000000002 2352.8399999999997 1072.7200000000003 2352.0799999999995 1074.0700000000002 2352.0799999999995C1075.3100000000002 2352.0799999999995 1076.18 2352.5899999999997 1076.66 2353.4099999999994C1077.39 2352.6799999999994 1078.3600000000001 2352.0799999999995 1079.5600000000002 2352.0799999999995C1081.7600000000002 2352.0799999999995 1082.7100000000003 2353.6999999999994 1082.7100000000003 2355.4099999999994L1082.7100000000003 2360.5999999999995L1080.8600000000004 2360.5999999999995L1080.8600000000004 2355.4599999999996C1080.8600000000004 2354.3899999999994 1080.2200000000003 2353.72 1079.2200000000003 2353.72C1078.3000000000002 2353.72 1077.5900000000001 2354.3199999999997 1077.1600000000003 2354.8399999999997C1077.1800000000003 2355.0299999999997 1077.2000000000003 2355.22 1077.2000000000003 2355.41L1077.2000000000003 2360.6L1075.3500000000004 2360.6L1075.3500000000004 2355.46C1075.3500000000004 2354.39 1074.7100000000003 2353.7200000000003 1073.7100000000003 2353.7200000000003C1072.7000000000003 2353.7200000000003 1071.9400000000003 2354.44 1071.5100000000002 2355.0000000000005L1071.5100000000002 2360.6000000000004ZM1040.27 2346.07L1040.27 2337.78L1041.91 2337.78L1041.91 2338.8100000000004C1042.3600000000001 2338.3100000000004 1043.3300000000002 2337.55 1044.68 2337.55C1045.92 2337.55 1046.79 2338.07 1047.27 2338.88C1048 2338.1600000000003 1048.97 2337.55 1050.18 2337.55C1052.3700000000001 2337.55 1053.3200000000002 2339.1800000000003 1053.3200000000002 2340.8900000000003L1053.3200000000002 2346.07L1051.4700000000003 2346.07L1051.4700000000003 2340.94C1051.4700000000003 2339.87 1050.8300000000002 2339.19 1049.8300000000002 2339.19C1048.91 2339.19 1048.2 2339.8 1047.7700000000002 2340.32C1047.7900000000002 2340.51 1047.8100000000002 2340.7000000000003 1047.8100000000002 2340.8900000000003L1047.8100000000002 2346.07L1045.9600000000003 2346.07L1045.9600000000003 2340.94C1045.9600000000003 2339.87 1045.3200000000002 2339.19 1044.3200000000002 2339.19C1043.3100000000002 2339.19 1042.5500000000002 2339.92 1042.1200000000001 2340.4700000000003L1042.1200000000001 2346.07ZM1057.87 2348.5L1057.87 2360.6L1056.2199999999998 2360.6L1056.2199999999998 2359.2799999999997C1055.5799999999997 2360.0899999999997 1054.5899999999997 2360.8199999999997 1053.0399999999997 2360.8199999999997C1050.5299999999997 2360.8199999999997 1048.9199999999998 2358.83 1048.9199999999998 2356.45C1048.9199999999998 2354.06 1050.5299999999997 2352.08 1053.0399999999997 2352.08C1054.4899999999998 2352.08 1055.4599999999998 2352.72 1056.0299999999997 2353.37L1056.0299999999997 2348.5ZM1023.73 2333.97L1023.73 2338.6899999999996C1024.34 2338.0699999999997 1025.29 2337.5499999999997 1026.41 2337.5499999999997C1028.5 2337.5499999999997 1029.8300000000002 2338.97 1029.8300000000002 2340.9399999999996L1029.8300000000002 2346.0699999999997L1027.9800000000002 2346.0699999999997L1027.9800000000002 2341.18C1027.9800000000002 2339.83 1027.1600000000003 2339.19 1026.0500000000002 2339.19C1025.0000000000002 2339.19 1024.2000000000003 2339.9 1023.7300000000001 2340.58L1023.7300000000001 2346.0699999999997L1021.8800000000001 2346.0699999999997L1021.8800000000001 2333.97ZM1029.6 2359.28C1029.79 2359.28 1029.98 2359.23 1030.1499999999999 2359.1800000000003L1030.1499999999999 2360.51C1029.81 2360.65 1029.3899999999999 2360.7200000000003 1028.9799999999998 2360.7200000000003C1028.2199999999998 2360.7200000000003 1027.61 2360.42 1027.3199999999997 2359.7500000000005C1026.5099999999998 2360.4100000000003 1025.4899999999998 2360.8200000000006 1024.1899999999996 2360.8200000000006C1022.6899999999996 2360.8200000000006 1021.2899999999996 2359.9900000000007 1021.2899999999996 2358.2800000000007C1021.2899999999996 2356.1500000000005 1023.2599999999996 2355.5000000000005 1024.9899999999996 2355.5000000000005C1025.6999999999996 2355.5000000000005 1026.4899999999996 2355.6000000000004 1027.1499999999996 2355.7400000000002L1027.1499999999996 2355.4500000000003C1027.1499999999996 2354.4100000000003 1026.3899999999996 2353.6800000000003 1024.9699999999996 2353.6800000000003C1023.7399999999996 2353.6800000000003 1022.7199999999996 2353.9900000000002 1021.9799999999996 2354.32L1021.9799999999996 2352.63C1022.6399999999995 2352.4 1023.8299999999996 2352.08 1025.1599999999996 2352.08C1027.5099999999995 2352.08 1028.9999999999995 2353.2 1028.9999999999995 2355.71L1028.9999999999995 2358.68C1028.9999999999995 2359.14 1029.2699999999995 2359.2799999999997 1029.5999999999995 2359.2799999999997C1029.9299999999994 2359.2799999999997 1029.5999999999995 2359.2799999999997 1029.5999999999995 2359.2799999999997ZM1047.61 2359.28C1047.8 2359.28 1047.99 2359.23 1048.1599999999999 2359.1800000000003L1048.1599999999999 2360.51C1047.82 2360.65 1047.3999999999999 2360.7200000000003 1046.9899999999998 2360.7200000000003C1046.2299999999998 2360.7200000000003 1045.62 2360.42 1045.3299999999997 2359.7500000000005C1044.5199999999998 2360.4100000000003 1043.4999999999998 2360.8200000000006 1042.1999999999996 2360.8200000000006C1040.6999999999996 2360.8200000000006 1039.2999999999995 2359.9900000000007 1039.2999999999995 2358.2800000000007C1039.2999999999995 2356.1500000000005 1041.2699999999995 2355.5000000000005 1042.9899999999996 2355.5000000000005C1043.6999999999996 2355.5000000000005 1044.4999999999995 2355.6000000000004 1045.1599999999996 2355.7400000000002L1045.1599999999996 2355.4500000000003C1045.1599999999996 2354.4100000000003 1044.3899999999996 2353.6800000000003 1042.9799999999996 2353.6800000000003C1041.7499999999995 2353.6800000000003 1040.7299999999996 2353.9900000000002 1039.9899999999996 2354.32L1039.9899999999996 2352.63C1040.6399999999996 2352.4 1041.8399999999995 2352.08 1043.1699999999996 2352.08C1045.5199999999995 2352.08 1046.9999999999995 2353.2 1046.9999999999995 2355.71L1046.9999999999995 2358.68C1046.9999999999995 2359.14 1047.2799999999995 2359.2799999999997 1047.6099999999994 2359.2799999999997C1047.9399999999994 2359.2799999999997 1047.6099999999994 2359.2799999999997 1047.6099999999994 2359.2799999999997ZM1034.9 2334.82L1034.9 2337.78L1037.91 2337.78L1037.91 2339.4L1034.9 2339.4L1034.9 2343.2000000000003C1034.9 2344.2900000000004 1035.4 2344.65 1036.47 2344.65C1037.08 2344.65 1037.63 2344.53 1038.15 2344.33L1038.15 2345.92C1037.5300000000002 2346.14 1036.73 2346.28 1035.92 2346.28C1034.3100000000002 2346.28 1033.0700000000002 2345.48 1033.0700000000002 2343.55L1033.0700000000002 2339.4L1031.5800000000002 2339.4L1031.5800000000002 2337.78L1033.0700000000002 2337.78L1033.0700000000002 2335.27ZM1063.87 2352.08C1067.1699999999998 2352.08 1068.31 2354.74 1067.78 2357.14L1061.54 2357.14C1061.75 2358.6299999999997 1063.2 2359.25 1064.72 2359.25C1065.72 2359.25 1066.64 2359.01 1067.3500000000001 2358.66L1067.3500000000001 2360.25C1066.5900000000001 2360.61 1065.5300000000002 2360.82 1064.3700000000001 2360.82C1061.8300000000002 2360.82 1059.67 2359.3700000000003 1059.67 2356.4500000000003C1059.67 2353.44 1061.95 2352.0800000000004 1063.8700000000001 2352.0800000000004C1065.7900000000002 2352.0800000000004 1063.8700000000001 2352.0800000000004 1063.8700000000001 2352.0800000000004ZM1035.49 2352.08C1036.43 2352.08 1037.33 2352.2799999999997 1038.05 2352.72L1038.05 2354.41C1037.45 2353.98 1036.6 2353.72 1035.75 2353.72C1034.28 2353.72 1032.8 2354.5 1032.8 2356.45C1032.8 2358.33 1034.23 2359.18 1035.72 2359.18C1036.6000000000001 2359.18 1037.48 2358.9199999999996 1038.14 2358.54L1038.14 2360.25C1037.3400000000001 2360.63 1036.44 2360.82 1035.39 2360.82C1033.18 2360.82 1030.91 2359.4700000000003 1030.91 2356.52C1030.91 2353.42 1033.28 2352.08 1035.49 2352.08C1037.71 2352.08 1035.49 2352.08 1035.49 2352.08ZM1050.79 2356.45C1050.79 2358.0699999999997 1051.8799999999999 2359.2 1053.36 2359.2C1054.6599999999999 2359.2 1055.61 2358.37 1056.01 2357.45L1056.01 2355.43C1055.61 2354.5299999999997 1054.66 2353.7 1053.36 2353.7C1051.8799999999999 2353.7 1050.79 2354.8199999999997 1050.79 2356.45ZM1056 2346L1056 2334L1058 2334L1058 2346ZM1023.19 2358.16C1023.19 2358.97 1023.9100000000001 2359.39 1024.74 2359.39C1025.63 2359.39 1026.49 2359.06 1027.15 2358.4L1027.15 2357C1026.65 2356.9 1025.94 2356.79 1025.3500000000001 2356.79C1024.3000000000002 2356.79 1023.1900000000002 2357.12 1023.1900000000002 2358.16C1023.1900000000002 2359.2 1023.1900000000002 2358.16 1023.1900000000002 2358.16ZM1041.2 2358.16C1041.2 2358.97 1041.92 2359.39 1042.75 2359.39C1043.63 2359.39 1044.5 2359.06 1045.16 2358.4L1045.16 2357C1044.65 2356.9 1043.95 2356.79 1043.3600000000001 2356.79C1042.3000000000002 2356.79 1041.2 2357.12 1041.2 2358.16C1041.2 2359.2 1041.2 2358.16 1041.2 2358.16ZM1061.52 2355.76L1066.12 2355.76C1066.2199999999998 2355.03 1065.77 2353.61 1063.9599999999998 2353.61C1062.7099999999998 2353.61 1061.59 2354.36 1061.5199999999998 2355.76ZM1014.16 2334.05L1014.16 2360.6000000000004L999.6709999999999 2369.2100000000005L985.1869999999999 2360.6000000000004L985.1869999999999 2334.05L999.6709999999999 2332.53L999.823 2332.55ZM1012.26 2348.45L1008.38 2350.77L1008.38 2355.06L1008.39 2355.06L1008.39 2356.37L999.6709999999999 2361.5899999999997L991.0379999999999 2356.3999999999996L991.0499999999998 2355.0899999999997L999.6809999999998 2360.22L999.6599999999999 2358.83L991.0259999999998 2353.65L991.0389999999999 2352.33L999.6379999999999 2357.45L999.617 2356.1L987.082 2348.64L987.082 2359.52L999.671 2367.0099999999998L1012.2600000000001 2359.52ZM999.6 2339.67L987.109 2347.1800000000003L999.582 2354.59L1001.71 2353.31L999.621 2352.08L999.634 2350.77L1002.82 2352.65L1003.84 2351.9700000000003L999.621 2349.4500000000003L999.634 2348.1400000000003L1004.98 2351.32L1005.91 2350.78L1006.04 2350.7000000000003L1006.0999999999999 2350.67L999.6209999999999 2346.81L999.6339999999999 2345.5L1007.2199999999999 2350.01L1008.81 2349.07L1012.25 2347.04Z " fill="#ffffff" transform="matrix(1,0,0,1,-985,-2332)"></path></svg>