<svg id="SvgjsSvg1014" xmlns="http://www.w3.org/2000/svg" version="1.1" xmlns:xlink="http://www.w3.org/1999/xlink" xmlns:svgjs="http://svgjs.com/svgjs" width="21" height="20"><defs id="SvgjsDefs1015"></defs><path id="SvgjsPath1016" d="M1092.58 33.4601L1091.37 42.372099999999996C1091.1899999999998 43.2942 1090.35 44.007 1089.4899999999998 44.007L1078.6099999999997 44.007C1077.7499999999998 44.007 1076.9099999999996 43.2942 1076.7299999999996 42.372099999999996L1075.2599999999995 32.0853C1075.1199999999994 31.352899999999998 1075.1099999999994 31.108599999999996 1075.1299999999994 31.030599999999996L1072.9999999999993 31.030599999999996C1072.4499999999994 31.030599999999996 1071.9999999999993 30.582899999999995 1071.9999999999993 30.030599999999996C1071.9999999999993 29.478499999999997 1072.4499999999994 29.030399999999997 1072.9999999999993 29.030399999999997L1076.9999999999993 29.030399999999997C1077.5499999999993 29.030399999999997 1077.9999999999993 29.478499999999997 1077.9999999999993 30.030599999999996C1077.9999999999993 30.546699999999998 1077.5999999999992 30.956399999999995 1077.0999999999992 31.009999999999998L1091.0699999999993 31.009999999999998C1092.1699999999992 31.009999999999998 1092.8399999999992 32.141 1092.5799999999992 33.4601ZM1089.4 41.9777C1089.4 41.9777 1089.4 41.9748 1089.41 41.9642L1090.5900000000001 33.1766L1090.6200000000001 32.9777L1077.42 32.9777L1078.73 41.9777ZM1079.25 44.9868C1080.28 44.9868 1081.12 45.825900000000004 1081.12 46.861000000000004C1081.12 47.896 1080.28 48.7351 1079.25 48.7351C1078.21 48.7351 1077.37 47.896 1077.37 46.861000000000004C1077.37 45.825900000000004 1078.2099999999998 44.9868 1079.25 44.9868ZM1088.25 44.9868C1089.28 44.9868 1090.12 45.825900000000004 1090.12 46.861000000000004C1090.12 47.896 1089.28 48.7351 1088.25 48.7351C1087.21 48.7351 1086.37 47.896 1086.37 46.861000000000004C1086.37 45.825900000000004 1087.2099999999998 44.9868 1088.25 44.9868Z " fill="#ffffff" transform="matrix(1,0,0,1,-1072,-29)"></path></svg>