<svg id="SvgjsSvg1020" xmlns="http://www.w3.org/2000/svg" version="1.1" xmlns:xlink="http://www.w3.org/1999/xlink" xmlns:svgjs="http://svgjs.com/svgjs" width="32" height="32"><defs id="SvgjsDefs1021"></defs><path id="SvgjsPath1022" d="M144.865 2352.23C153.531 2352.23 160.556 2359.25 160.556 2367.92C160.556 2376.59 153.531 2383.61 144.865 2383.61C136.198 2383.61 129.173 2376.59 129.173 2367.92C129.173 2359.25 136.198 2352.23 144.865 2352.23ZM145.638 2377.22L145.638 2367.93L148.381 2367.93L148.666 2364.8399999999997L145.638 2364.8399999999997L145.643 2362.9799999999996C145.643 2362.0899999999997 145.728 2361.7199999999993 147.01 2361.7199999999993L148.774 2361.7199999999993L148.774 2358.2999999999993L145.982 2358.2999999999993C142.688 2358.2999999999993 141.9 2359.8399999999992 141.9 2362.6399999999994L141.9 2364.8399999999992L140.011 2364.8399999999992L140.011 2367.9299999999994L141.9 2367.9299999999994L141.9 2377.2199999999993Z " fill="#ffffff" transform="matrix(1,0,0,1,-129,-2352)"></path></svg>