<svg id="SvgjsSvg1038" xmlns="http://www.w3.org/2000/svg" version="1.1" xmlns:xlink="http://www.w3.org/1999/xlink" xmlns:svgjs="http://svgjs.com/svgjs" width="49" height="49"><defs id="SvgjsDefs1039"></defs><path id="SvgjsPath1040" d="M47.7984 1483.5C47.7984 1496.59 58.4097 1507.2 71.4995 1507.2C84.5889 1507.2 95.2012 1496.5900000000001 95.2012 1483.5C95.2012 1470.41 84.5889 1459.8 71.4995 1459.8C58.4097 1459.8 47.7984 1470.4099999999999 47.7984 1483.5ZM71.4372 1499.62C71.4372 1499.62 49.197100000000006 1489.4399999999998 71.4372 1466.87C93.6774 1489.4399999999998 71.4372 1499.62 71.4372 1499.62ZM78.9528 1482.44L72.41629999999999 1486.6000000000001L72.39569999999999 1490.2800000000002L79.28979999999999 1485.8700000000001C79.33559999999999 1484.7600000000002 79.21159999999999 1483.6100000000001 78.95279999999998 1482.44ZM70.3958 1496.7L70.3958 1492.49L63.97879999999999 1488.36C65.08479999999999 1492.5 68.2952 1495.29 70.3958 1496.6999999999998ZM78.8592 1488.5L72.4163 1492.6L72.3957 1496.76C74.46650000000001 1495.4 77.7009 1492.65 78.8592 1488.5ZM63.5627 1485.63L70.3958 1490.1100000000001L70.3958 1486.4900000000002L63.943099999999994 1482.3400000000001C63.688199999999995 1483.46 63.540699999999994 1484.5600000000002 63.56269999999999 1485.63ZM70.3958 1484.11L70.3958 1480.4799999999998L65.99539999999999 1477.0999999999997C65.38309999999998 1478.1999999999996 64.9129 1479.2799999999997 64.53139999999999 1480.3399999999997ZM72.4163 1480.6L72.3957 1484.28L78.3767 1480.43C78.0271 1479.45 77.5895 1478.44 77.0398 1477.42ZM72.3957 1478.3L76.02520000000001 1475.7C75.03790000000001 1474.13 73.82780000000001 1472.53 72.3957 1470.88ZM70.3958 1478.02L70.3958 1470.98C69.091 1472.48 67.97 1473.96 67.0397 1475.4ZM71.4995 1505.2C59.5333 1505.2 49.7984 1495.47 49.7984 1483.5C49.7984 1471.53 59.5333 1461.8 71.4995 1461.8C83.4658 1461.8 93.2013 1471.53 93.2013 1483.5C93.2013 1495.47 83.4658 1505.2 71.49950000000001 1505.2Z " fill="#323232" transform="matrix(1,0,0,1,-47,-1459)"></path></svg>