<svg id="SvgjsSvg1041" xmlns="http://www.w3.org/2000/svg" version="1.1" xmlns:xlink="http://www.w3.org/1999/xlink" xmlns:svgjs="http://svgjs.com/svgjs" width="48" height="49"><defs id="SvgjsDefs1042"></defs><path id="SvgjsPath1043" d="M613.482 1395.5C613.482 1408.59 624.093 1419.2 637.183 1419.2C650.272 1419.2 660.885 1408.5900000000001 660.885 1395.5C660.885 1382.41 650.2719999999999 1371.8 637.183 1371.8C624.093 1371.8 613.482 1382.4099999999999 613.482 1395.5ZM652.578 1395C652.319 1395.39 651.699 1396.04 650.451 1396.04C649.561 1396.04 648.25 1395.6599999999999 647.195 1395.2C647.4240000000001 1397.72 646.922 1400.6000000000001 645.619 1403.55C646.091 1404.5 646.291 1405.55 646.1360000000001 1406.6299999999999C645.648 1410.01 641.8530000000001 1411.86 637.6120000000001 1411.86C633.3700000000001 1411.86 629.594 1410.01 629.1320000000001 1406.6299999999999C629.008 1405.7199999999998 629.1360000000001 1404.83 629.4620000000001 1404.01C628.0190000000001 1400.93 627.4500000000002 1397.92 627.6760000000002 1395.28C626.6570000000002 1395.71 625.4480000000002 1396.04 624.6110000000001 1396.04C623.363 1396.04 622.743 1395.3899999999999 622.4840000000002 1395C622.0570000000001 1394.35 621.9990000000001 1393.54 622.3220000000001 1392.78C623.1340000000001 1390.87 625.9150000000001 1390.04 627.0720000000001 1389.77L627.1680000000001 1389.75C625.7690000000001 1386.85 626.4450000000002 1382.15 626.9710000000001 1380.56L630.0280000000001 1380.81C630.0840000000002 1381.81 630.7940000000001 1383.69 633.4640000000002 1385.82L635.0490000000002 1386.9099999999999C635.7990000000002 1386.7699999999998 636.5860000000002 1386.6799999999998 637.4460000000003 1386.6799999999998C638.2640000000002 1386.6799999999998 639.0160000000003 1386.7599999999998 639.7350000000002 1386.8899999999999L641.4270000000002 1385.7299999999998C644.0970000000002 1383.5999999999997 644.8060000000003 1381.7199999999998 644.8620000000002 1380.7199999999998L647.9200000000002 1380.4599999999998C648.4480000000002 1382.0599999999997 649.1270000000002 1386.8099999999997 647.6960000000001 1389.6999999999998L647.9900000000001 1389.7699999999998C649.1470000000002 1390.0399999999997 651.9270000000001 1390.8699999999997 652.7400000000001 1392.7799999999997C653.0630000000001 1393.5399999999997 653.0050000000001 1394.3499999999997 652.5780000000001 1394.9999999999998ZM630.806 1391.79C629.0540000000001 1394.54 629.2280000000001 1398.79 631.273 1403.1599999999999L631.64 1403.9399999999998L631.322 1404.7399999999998C631.111 1405.2799999999997 631.041 1405.8199999999997 631.114 1406.3599999999997C631.443 1408.7699999999998 634.7130000000001 1409.8599999999997 637.6120000000001 1409.8599999999997C640.5190000000001 1409.8599999999997 643.8080000000001 1408.7599999999998 644.157 1406.3399999999997C644.248 1405.6999999999996 644.138 1405.0599999999997 643.827 1404.4399999999996L643.411 1403.5999999999997L643.789 1402.7399999999998C645.667 1398.4899999999998 645.759 1394.37 644.033 1391.7199999999998C642.736 1389.7299999999998 640.458 1388.6799999999998 637.446 1388.6799999999998C634.3960000000001 1388.6799999999998 632.1 1389.7499999999998 630.806 1391.7899999999997ZM632.329 1387.47C632.329 1387.47 628.7339999999999 1384.99 628.5939999999999 1382.45C628.1899999999999 1384.63 628.01 1388.07 629.299 1389.44C629.943 1389.1100000000001 630.959 1388.03 632.329 1387.47ZM645.592 1389.34C646.881 1387.97 646.6999999999999 1384.53 646.297 1382.36C646.1560000000001 1384.8999999999999 642.561 1387.37 642.561 1387.37C643.932 1387.9399999999998 644.947 1389.02 645.592 1389.34ZM650.899 1393.57C650.396 1392.3799999999999 647.538 1391.72 647.538 1391.72C647.42 1392.28 647.389 1392.4 647.064 1392.8700000000001C647.745 1393.43 651.4019999999999 1394.7500000000002 650.899 1393.5700000000002ZM627.509 1391.72C627.509 1391.72 624.65 1392.38 624.147 1393.57C623.6450000000001 1394.75 627.302 1393.4299999999998 627.9820000000001 1392.87C627.6560000000001 1392.3999999999999 627.6270000000001 1392.28 627.5090000000001 1391.7199999999998ZM637.183 1417.2C625.217 1417.2 615.482 1407.47 615.482 1395.5C615.482 1383.53 625.217 1373.8 637.183 1373.8C649.149 1373.8 658.885 1383.53 658.885 1395.5C658.885 1407.47 649.149 1417.2 637.183 1417.2Z " fill="#323232" transform="matrix(1,0,0,1,-613,-1371)"></path></svg>