<svg id="SvgjsSvg1000" xmlns="http://www.w3.org/2000/svg" version="1.1" xmlns:xlink="http://www.w3.org/1999/xlink" xmlns:svgjs="http://svgjs.com/svgjs" width="154" height="64"><defs id="SvgjsDefs1001"></defs><path id="SvgjsPath1007" d="M81.3314 51.056C81.0942 50.8782 80.9067 50.738499999999995 80.6606 50.738499999999995C80.2592 50.738499999999995 80.102 51.0774 79.9985 51.300999999999995C79.94560000000001 51.415299999999995 79.87450000000001 51.569599999999994 79.7543 51.773599999999995C79.1576 52.849799999999995 77.222 53.39549999999999 73.9994 53.39549999999999C70.2328 53.39549999999999 65.2221 52.638099999999994 60.818799999999996 51.89569999999999C55.51989999999999 50.993399999999994 49.476499999999994 50.03429999999999 44.513099999999994 49.68869999999999C45.418899999999994 45.72199999999999 46.08149999999999 40.59209999999999 46.537499999999994 34.00489999999999C46.537499999999994 33.41129999999999 45.63419999999999 33.27759999999999 45.317299999999996 33.27759999999999C44.9184 33.27759999999999 43.610299999999995 33.442699999999995 43.532199999999996 35.56559999999999L43.399899999999995 38.11359999999999C42.934 40.62709999999999 41.5331 44.874399999999994 37.38419999999999 45.07749999999999C37.29089999999999 45.0823 37.199099999999994 45.084199999999996 37.107299999999995 45.084199999999996C37.10679999999999 45.084199999999996 37.10679999999999 45.084199999999996 37.10679999999999 45.084199999999996C35.47939999999999 45.0832 34.106399999999994 44.464099999999995 33.02539999999999 43.24249999999999C31.05909999999999 41.01979999999999 30.23089999999999 36.87429999999999 30.80999999999999 32.154399999999995C31.015099999999993 30.515899999999995 31.36799999999999 28.943699999999996 31.88809999999999 27.360599999999994C38.51069999999999 27.208099999999995 44.82409999999999 24.201499999999996 46.35979999999999 20.430799999999994C46.95159999999999 18.988499999999995 46.880799999999994 17.549299999999995 46.16499999999999 16.481599999999993C45.26549999999999 15.141699999999993 43.44769999999999 14.546099999999994 41.21479999999999 14.845999999999993C36.59079999999999 15.442599999999993 32.00049999999999 19.32529999999999 29.42669999999999 24.785399999999992C26.51599999999999 23.962099999999992 24.01069999999999 21.48849999999999 24.64639999999999 18.139999999999993C25.56389999999999 13.234599999999993 32.07949999999999 11.632099999999994 34.22159999999999 11.632099999999994C34.63369999999999 11.632099999999994 34.80359999999999 11.685699999999994 34.84809999999999 11.702399999999994C35.134599999999985 11.811899999999994 35.46479999999999 11.872199999999994 35.77729999999999 11.872199999999994C36.41249999999999 11.872199999999994 36.84709999999999 11.626099999999994 36.940299999999986 11.213099999999994C37.102899999999984 10.492299999999993 36.12299999999998 10.026599999999993 35.745499999999986 9.846909999999994C35.48869999999999 9.731699999999995 35.11219999999999 9.675109999999995 34.593699999999984 9.675109999999995C31.674199999999985 9.675109999999995 23.250799999999984 11.713199999999995 21.938399999999984 18.276499999999995C21.543399999999984 20.251099999999994 21.851999999999983 22.008099999999995 22.855899999999984 23.498299999999993C23.988699999999984 25.179799999999993 26.032999999999983 26.455399999999994 28.521399999999986 27.046999999999993C27.925199999999986 28.707199999999993 27.514099999999985 30.555999999999994 27.297199999999986 32.55199999999999C26.757699999999986 37.52179999999999 27.834899999999987 41.917199999999994 30.253199999999985 44.612399999999994C31.909599999999987 46.458099999999995 34.125399999999985 47.433699999999995 36.66149999999998 47.433699999999995L36.96279999999998 47.42889999999999C39.24059999999998 47.32139999999999 41.22399999999998 46.42009999999999 42.78169999999998 44.80309999999999C42.55699999999998 46.599 42.28559999999998 48.17979999999999 41.95929999999998 49.592099999999995C41.597099999999976 49.58429999999999 41.242599999999975 49.580299999999994 40.89539999999998 49.580299999999994C34.96479999999998 49.580299999999994 31.650399999999983 50.807599999999994 30.46719999999998 53.436899999999994C29.78559999999998 54.895599999999995 29.88469999999998 56.44559999999999 30.74749999999998 57.80089999999999C31.81639999999998 59.48059999999999 33.86469999999998 60.56579999999999 35.96609999999998 60.56579999999999C36.28949999999998 60.56579999999999 36.613199999999985 60.53919999999999 36.93399999999998 60.486499999999985C40.15519999999999 59.910299999999985 42.40079999999998 57.14179999999998 43.98229999999998 51.78539999999998C48.34559999999998 51.99449999999998 53.83539999999998 52.76979999999998 60.30699999999998 54.09109999999998C61.28169999999998 54.29329999999998 62.26509999999998 54.503399999999985 63.24599999999998 54.71199999999998C68.58719999999998 55.84879999999998 73.63219999999998 56.92219999999998 77.30119999999998 56.92219999999998C79.41149999999998 56.92219999999998 80.87349999999998 56.556899999999985 81.76699999999998 55.80979999999998C82.65869999999998 55.08519999999998 82.81869999999998 54.22289999999998 82.79639999999998 53.628399999999985C82.75819999999997 52.65569999999998 82.17809999999997 51.641699999999986 81.33139999999997 51.05599999999998ZM99.3567 31.763L99.2073 31.570600000000002C99.0531 31.3743 98.79140000000001 31.282600000000002 98.3842 31.282600000000002C97.51310000000001 31.282600000000002 96.08340000000001 31.698500000000003 95.9564 32.794200000000004C95.8354 33.5589 95.7065 34.8594 95.6147 36.246300000000005C94.9614 41.480700000000006 93.4115 44.376200000000004 92.5902 44.376200000000004C92.2953 44.376200000000004 92.0619 44.267700000000005 91.85679999999999 44.0354C90.7885 42.823600000000006 90.6742 38.8175 91.51599999999999 32.136L91.53259999999999 31.864400000000003L91.38319999999999 31.691600000000005C91.23179999999999 31.517900000000004 90.98579999999998 31.436800000000005 90.6077 31.436800000000005C89.726 31.436800000000005 88.27759999999999 31.856600000000004 88.14779999999999 32.98950000000001C87.8774 35.58030000000001 87.81389999999999 37.87610000000001 87.95839999999998 39.81660000000001C87.36559999999999 41.72010000000001 86.03649999999999 44.800900000000006 83.64099999999998 44.800900000000006C83.02379999999998 44.800900000000006 82.43399999999998 44.528600000000004 81.93599999999998 44.01390000000001C80.93199999999997 42.97580000000001 80.37739999999998 41.053000000000004 80.45059999999998 38.87440000000001C80.61279999999998 35.17020000000001 81.73379999999997 32.26890000000001 83.00429999999999 32.26890000000001C83.41449999999999 32.26890000000001 83.57759999999999 32.431900000000006 83.66449999999999 32.55490000000001C84.06679999999999 33.12530000000001 83.89099999999999 34.51290000000001 83.511 35.58330000000001L83.42609999999999 35.80970000000001C83.25039999999998 36.276500000000006 83.13419999999999 36.585100000000004 83.33829999999999 36.8811C83.4271 37.009100000000004 83.63029999999999 37.230900000000005 84.24159999999999 37.0959C84.98769999999999 36.9562 86.51029999999999 36.1556 86.64189999999999 35.1575C86.68409999999999 34.597899999999996 86.73379999999999 32.678 85.6137 31.468799999999998C85.04629999999999 30.857599999999998 84.29729999999999 30.548 83.38619999999999 30.548C80.13609999999998 30.548 77.49649999999998 34.344899999999996 77.24449999999999 39.3879C77.23369999999998 39.711200000000005 77.23669999999998 40.023700000000005 77.2494 40.3286C76.36269999999999 43.7971 75.6352 45.008 75.348 45.2678C75.10979999999999 44.8703 74.7963 42.946600000000004 75.78059999999999 37.7775L75.7953 37.499300000000005L75.6459 37.3263C75.4837 37.141000000000005 75.2016 37.049800000000005 74.7807 37.049800000000005C73.8149 37.049800000000005 72.6899 37.4915 72.5024 38.466100000000004C72.4399 38.8089 72.4203 39.064800000000005 72.3998 39.3391L72.3754 39.6545C71.8227 42.754 70.7113 44.3762 69.89789999999999 44.3762C69.77579999999999 44.3762 69.6147 44.273599999999995 69.45739999999999 44.0959C68.78939999999999 43.341 68.2143 41.3713 68.5277 38.8285C68.9369 35.4122 70.3227 33.117399999999996 71.97699999999999 33.117399999999996C72.48279999999998 33.117399999999996 72.82169999999999 33.228699999999996 72.98379999999999 33.449299999999994C73.2143 33.7619 73.18599999999999 34.38889999999999 72.90749999999998 35.28719999999999L72.85779999999998 35.42199999999999C72.64699999999998 35.98939999999999 72.51989999999998 36.33229999999999 72.74169999999998 36.65169999999999C72.83339999999998 36.78239999999999 73.09709999999998 37.00029999999999 73.63809999999998 36.88499999999999C74.38909999999998 36.74459999999999 75.90759999999997 35.85859999999999 76.03849999999998 34.85379999999999C76.09219999999999 33.92699999999999 75.80119999999998 33.076499999999996 75.21819999999998 32.458299999999994C74.76019999999998 31.973799999999994 73.89299999999999 31.396699999999996 72.35779999999998 31.396699999999996C69.53069999999998 31.396699999999996 65.99309999999998 33.53529999999999 65.33779999999999 39.592999999999996C64.27869999999999 43.1125 62.93199999999999 44.752199999999995 62.355899999999984 44.752199999999995C61.59419999999999 44.752199999999995 60.40029999999999 42.500099999999996 60.103399999999986 37.497099999999996C61.951599999999985 34.47389999999999 64.36359999999999 29.132999999999996 65.47049999999999 24.611399999999996C66.29479999999998 21.064699999999995 66.84709999999998 15.304999999999996 65.49499999999999 13.602699999999997C65.1278 13.139899999999997 64.69949999999999 13.043199999999997 64.40459999999999 13.043199999999997C60.457399999999986 13.043199999999997 57.27729999999999 25.196399999999997 56.735199999999985 33.9114C56.65509999999998 35.297 56.674599999999984 36.6544 56.792999999999985 37.9484C55.90909999999999 42.1341 54.24359999999999 44.8009 53.477499999999985 44.8009C52.761099999999985 44.8009 51.63809999999999 42.6655 51.35539999999998 37.9204C53.11559999999998 35.0393 55.41189999999998 29.955000000000002 56.467199999999984 25.6475C57.252799999999986 22.264 57.777599999999985 16.7679 56.485199999999985 15.139800000000001C56.129299999999986 14.6925 55.71429999999999 14.599100000000002 55.42799999999998 14.599100000000002C51.65419999999998 14.599100000000002 48.616599999999984 26.1877 48.09999999999998 34.4974C47.75239999999998 40.506099999999996 49.40519999999998 44.5198 50.92619999999998 46.131099999999996C51.58679999999998 46.831399999999995 52.30799999999998 47.201299999999996 53.01069999999998 47.201299999999996C54.85249999999998 47.201299999999996 56.51109999999998 44.701499999999996 57.58479999999998 42.0939C58.54729999999998 45.2181 60.18049999999998 47.2219 61.86609999999998 47.2219C63.14839999999998 47.2219 64.52729999999998 45.9846 65.74159999999998 43.7814C66.47009999999997 45.840199999999996 67.89979999999997 46.9084 69.13599999999998 46.9084C69.18989999999998 46.9084 69.24449999999999 46.9065 69.30609999999999 46.9015C70.48479999999999 46.7981 71.61269999999999 45.885999999999996 72.56379999999999 44.2952C72.94769999999998 46.4377 73.77869999999999 47.7102 74.86079999999998 47.7102C76.17909999999998 47.7102 77.28949999999999 45.8654 78.09019999999998 43.9388C79.09899999999998 46.0345 80.92719999999998 47.3285 83.00429999999999 47.3285C85.06879999999998 47.3285 87.04339999999999 45.8557 88.54429999999999 43.2385C89.46709999999999 46.2824 91.13709999999999 46.7768 92.12349999999999 46.7768C93.10589999999999 46.7768 94.0688 46.0647 94.9379 44.7278L94.90859999999999 45.0051C92.4361 47.8185 90.5414 51.0586 89.2777 54.634C88.22789999999999 57.5685 88.2533 60.6956 89.3402 62.2395C89.7602 62.8352 90.3119 63.1507 90.93599999999999 63.1507C92.78659999999999 63.1507 95.58539999999999 60.6164 98.51499999999999 38.7121C98.97489999999999 35.530499999999996 99.31679999999999 32.0588 99.31189999999998 32.0588ZM172.252 54.3274C170.51000000000002 52.4719 168.024 52.247299999999996 165.24900000000002 52.247299999999996L165.01300000000003 52.247299999999996C163.12000000000003 50.247299999999996 160.10000000000002 48.092999999999996 156.03600000000003 47.8469C152.54100000000003 47.6202 149.67300000000003 47.6215 147.20100000000002 48.6779C147.28400000000002 48.009 147.353 47.1322 147.41000000000003 46.4534C147.92800000000003 46.661500000000004 148.46800000000002 46.664300000000004 149.04500000000002 46.664300000000004C152.11300000000003 46.664300000000004 155.33200000000002 44.0803 155.61200000000002 38.4162C155.74500000000003 35.2911 155.23200000000003 33.0052 154.127 31.852900000000005C153.591 31.294300000000007 152.919 30.985500000000005 152.184 30.985500000000005C150.537 30.985500000000005 148.995 32.428900000000006 147.79 35.04110000000001C147.786 34.755100000000006 147.783 34.502100000000006 147.779 34.27160000000001C147.771 33.793200000000006 147.764 33.39960000000001 147.764 32.95810000000001C147.764 31.85290000000001 147.711 31.226700000000008 146.627 31.226700000000008C146.23700000000002 31.226700000000008 145.84300000000002 31.40170000000001 145.54600000000002 31.70630000000001C145.25300000000001 32.00910000000001 144.91000000000003 32.59100000000001 144.94000000000003 33.64570000000001C144.967 35.02930000000001 144.97200000000004 36.43080000000001 144.95600000000002 37.926800000000014C144.45700000000002 40.17220000000002 143.55100000000002 41.93780000000002 142.61700000000002 42.62430000000001C143.11800000000002 41.437700000000014 143.491 40.01300000000001 143.73000000000002 38.37020000000001C144.14600000000002 35.34800000000001 143.68800000000002 32.73260000000001 142.50300000000001 31.374300000000012C141.935 30.721800000000012 141.24900000000002 30.425900000000013 140.51700000000002 30.55600000000001C139.67200000000003 30.708000000000013 138.97100000000003 31.160500000000013 138.407 31.814600000000013C138.205 31.410500000000013 137.684 31.256100000000014 137.156 31.474000000000014C134.57500000000002 32.496400000000015 132.934 35.50120000000001 132.76600000000002 39.512000000000015C132.66500000000002 42.00120000000001 133.335 44.12730000000001 134.65200000000002 45.499200000000016C135.53500000000003 46.41820000000001 136.62400000000002 46.903500000000015 137.805 46.903500000000015C139.166 46.903500000000015 140.457 46.136800000000015 141.461 44.73960000000002C142.657 44.70430000000002 143.82600000000002 43.99430000000002 144.81300000000002 42.734600000000015C144.69400000000002 45.22790000000001 144.50300000000001 47.67390000000002 144.246 50.03160000000001C142.235 51.51600000000001 140.536 53.65730000000001 139.055 56.57160000000001C137.073 60.50510000000001 137.291 64.11730000000001 138.333 65.81080000000001C138.776 66.52950000000001 139.37199999999999 66.92490000000001 140.01 66.92490000000001C143.099 66.92490000000001 145.581 58.35090000000001 146.78699999999998 50.909400000000005C149.15599999999998 49.482800000000005 151.97799999999998 48.809900000000006 155.21999999999997 48.939800000000005C158.00599999999997 49.042300000000004 160.38499999999996 49.810700000000004 162.02999999999997 51.12330000000001C158.80199999999996 52.16630000000001 156.57899999999998 54.81260000000001 156.14299999999997 58.21610000000001C155.91199999999998 59.95350000000001 156.32199999999997 61.56750000000001 157.26599999999996 62.64560000000001C158.11599999999996 63.61630000000001 159.30599999999995 64.11340000000001 160.77599999999995 64.0404C162.52099999999996 63.96130000000001 164.02599999999995 63.2668 165.12999999999997 62.032500000000006C166.49299999999997 60.50880000000001 167.14999999999998 58.24640000000001 166.97899999999996 55.66030000000001C166.90999999999997 54.660500000000006 166.70699999999997 53.73350000000001 166.37399999999997 52.893800000000006C170.28199999999995 53.53340000000001 172.63199999999998 56.879200000000004 172.42899999999997 61.651500000000006C172.152 67.4619 167.07799999999997 71.05890000000001 162.53499999999997 71.05890000000001C159.53799999999995 71.05890000000001 157.33899999999997 70.32530000000001 156.17799999999997 68.93870000000001C155.12499999999997 67.68180000000001 155.12399999999997 66.18780000000001 155.30499999999998 65.1671C155.33399999999997 65.0228 155.36299999999997 64.8978 155.38799999999998 64.7894C155.47699999999998 64.4054 155.54599999999996 64.1017 155.33599999999998 63.8381C155.24999999999997 63.7296 155.08899999999997 63.600899999999996 154.80499999999998 63.600899999999996C154.70899999999997 63.600899999999996 154.60099999999997 63.614399999999996 154.41899999999998 63.65559999999999C153.18699999999998 64.01589999999999 151.93999999999997 65.22869999999999 151.93999999999997 66.84989999999999C151.93999999999997 69.78729999999999 155.06999999999996 72.9494 161.94199999999998 72.9494C169.07999999999998 72.9494 174.37699999999998 68.6202 174.82699999999997 61.849799999999995C175.02399999999997 58.71999999999999 174.10999999999996 56.305899999999994 172.25199999999998 54.3274ZM132.589 46.7407C131.883 46.483599999999996 131.153 44.8108 131.687 38.2981C131.97500000000002 34.5911 132.09400000000002 32.4475 131.202 31.482599999999998C130.888 31.144899999999996 130.47 30.9728 129.959 30.9728C127.81700000000001 30.9728 125.753 33.579299999999996 124.316 36.7044C124.351 34.258 124.505 31.9339 124.777 29.7776C126.975 28.749299999999998 128.697 27.0129 129.895 24.6155C131.714 21.0413 131.479 17.2345 130.306 15.3215C129.853 14.5822 129.263 14.175 128.644 14.175C125.92800000000001 14.175 123.415 19.8623 122.21100000000001 28.6976C121.05600000000001 28.9739 119.805 29.0013 118.59500000000001 28.774600000000003C118.28300000000002 28.7189 117.98600000000002 28.640000000000004 117.70500000000001 28.539200000000005C119.35000000000001 27.528500000000005 120.50000000000001 25.431800000000003 120.61900000000001 23.063700000000004C120.73800000000001 21.278600000000004 120.24800000000002 19.722900000000003 119.20600000000002 18.565800000000003C118.04300000000002 17.276500000000002 116.22400000000002 16.550000000000004 113.94300000000001 16.465100000000003C113.82400000000001 16.4612 113.70300000000002 16.459200000000003 113.58100000000002 16.459200000000003C109.13100000000001 16.459200000000003 104.43000000000002 18.8636 104.05300000000001 23.4505C103.668 27.4846 107.24600000000001 29.8352 110.70500000000001 32.1086L111.4 32.5658C114.706 34.784400000000005 117.635 37.09310000000001 117.16300000000001 40.9134C116.78000000000002 44.047900000000006 112.82900000000001 46.571400000000004 108.62100000000001 46.245400000000004C106.48 46.077400000000004 104.635 45.167300000000004 103.42500000000001 43.682C102.263 42.255 101.754 40.4269 101.99300000000001 38.5383C102.25900000000001 36.5627 103.12100000000001 35.0509 105.08600000000001 33.1282C105.46000000000001 32.7278 105.78000000000002 32.2981 105.59300000000002 31.8684C105.51700000000002 31.6936 105.33000000000001 31.3811 104.60700000000001 31.486700000000003C104.01500000000001 31.571500000000004 102.183 32.169200000000004 101.58600000000001 32.714200000000005C99.88910000000001 34.252300000000005 99.40750000000001 36.37520000000001 99.30220000000001 37.89170000000001C99.06490000000001 42.105700000000006 101.23100000000001 47.44840000000001 108.11600000000001 48.63690000000001C108.808 48.75510000000001 109.51200000000001 48.81580000000001 110.20700000000001 48.81580000000001C115.813 48.81580000000001 120.27000000000001 45.03840000000001 120.57600000000001 40.02860000000001C120.84700000000001 35.33320000000001 117.224 32.68980000000001 113.804 30.578300000000013L113.429 30.35190000000001C110.111 28.342200000000012 106.976 26.44360000000001 107.464 22.717000000000013C107.849 19.867500000000014 110.573 18.592000000000013 113.101 18.592000000000013C113.28 18.592000000000013 113.459 18.597900000000013 113.64 18.609600000000015C116.443 18.789300000000015 118.008 20.391800000000014 118.049 23.122400000000013C118.06400000000001 24.369400000000013 117.67200000000001 25.518800000000013 117.00200000000001 26.196500000000015C116.686 26.516900000000014 116.32700000000001 26.700500000000016 116.01800000000001 26.700500000000016C115.57200000000002 26.700500000000016 115.30800000000002 26.314600000000016 115.18500000000002 26.041100000000014C114.95700000000002 25.331500000000013 114.93700000000001 24.549200000000013 115.12100000000002 23.860400000000013L115.20300000000002 23.610600000000012C115.35000000000002 23.159400000000012 115.44800000000002 22.861600000000013 115.24200000000002 22.57740000000001C115.17200000000003 22.482600000000012 115.01100000000002 22.32350000000001 114.70200000000001 22.32350000000001C114.60300000000001 22.32350000000001 114.48800000000001 22.33800000000001 114.31300000000002 22.37620000000001C113.45100000000002 22.59120000000001 112.12900000000002 23.45230000000001 112.02500000000002 24.964100000000013C111.93900000000002 27.342100000000013 113.36700000000002 30.084200000000013 117.63100000000001 30.652700000000014C119.13000000000001 30.861500000000014 120.62700000000001 30.846800000000012 122.00500000000001 30.612500000000015C121.733 33.11250000000001 121.558 35.76300000000001 121.48400000000001 38.50330000000002C121.45 40.13010000000002 121.423 41.08530000000002 121.403 41.801000000000016C121.373 42.88220000000002 121.357 43.41900000000002 121.357 44.87620000000002C121.357 46.12230000000002 121.541 46.56480000000002 122.578 46.56480000000002C123.148 46.56480000000002 124.126 46.08700000000002 124.175 44.35670000000002C125.205 37.53360000000002 128.024 33.76190000000002 128.751 33.723900000000015C128.88400000000001 33.92110000000002 128.782 34.920200000000015 128.691 35.802000000000014C128.593 36.75120000000001 128.471 37.93190000000001 128.441 39.351900000000015C128.316 45.19450000000001 129.447 48.163300000000014 131.893 48.42690000000002C133.104 48.57640000000002 133.329 48.02370000000002 133.375 47.803100000000015C133.408 47.649600000000014 133.45 47.12230000000002 132.589 46.74070000000002ZM60.1117 33.263C60.4706 26.6927 62.6855 17.795099999999998 63.7738 16.436899999999998C64.0951 17.299999999999997 64.1698 20.6877 63.1177 24.735599999999998C62.5268 27.133 61.3378 30.473899999999997 60.1117 33.263ZM51.3705 33.7511C51.7304 27.5863 53.7856 19.296100000000003 54.8197 17.9054C55.1104 18.7844 55.160999999999994 21.9787 54.1795 25.7531C53.6249 28.0032 52.518499999999996 31.1223 51.3705 33.7511ZM163.288 60.9398C162.723 61.5393 162.019 61.855799999999995 161.251 61.855799999999995L161.145 61.853699999999996C160.33200000000002 61.8381 159.693 61.556999999999995 159.244 61.0169C158.651 60.3029 158.443 59.1945 158.661 57.8908C159.061 55.2883 160.945 53.396699999999996 163.611 52.8899C164.209 53.8519 164.54899999999998 54.974 164.623 56.2317C164.74099999999999 58.1994 164.253 59.9154 163.28799999999998 60.9398ZM149.003 44.631C148.404 44.631 147.95499999999998 44.5061 147.60899999999998 44.2406L147.67299999999997 43.214C148.72599999999997 36.4191 150.78099999999998 33.541199999999996 151.42099999999996 33.541199999999996C151.45399999999995 33.541199999999996 151.54199999999997 33.541199999999996 151.66499999999996 33.6729C152.12199999999996 34.1594 152.53399999999996 35.8343 152.32199999999997 39.0734C152.07399999999998 42.5531 150.83199999999997 44.631 149.003 44.631ZM37.2431 57.8888C36.8788 58.01390000000001 36.5116 58.077600000000004 36.1513 58.077600000000004C35.1494 58.077600000000004 34.2782 57.593 33.8212 56.7815C33.3334 55.9153 33.418499999999995 54.8166 34.0518 53.7718C34.5932 52.8947 36.3173 51.8577 41.4052 51.7736C40.3637 55.215 38.963300000000004 57.270700000000005 37.2431 57.8888ZM94.3803 48.8538C93.2651 56.5325 92.0385 59.76 91.47500000000001 59.986599999999996C91.4047 59.979699999999994 91.2856 59.9115 91.16440000000001 59.73649999999999C90.69860000000001 59.066599999999994 90.55020000000002 57.40849999999999 91.53260000000002 54.76389999999999C92.25630000000001 52.79429999999999 93.25720000000001 50.724799999999995 94.38030000000002 48.85379999999999ZM140.664 63.719C140.56699999999998 63.707300000000004 140.47199999999998 63.6291 140.384 63.4865C139.89899999999997 62.7014 139.82299999999998 60.2414 141.60299999999998 56.6809C142.19099999999997 55.5052 142.909 54.4289 143.74499999999998 53.467C142.70699999999997 60.1027 141.248 63.4347 140.664 63.719ZM125.096 27.4221C126.071 21.1477 127.54 17.5831 128.085 17.337200000000003C128.119 17.347 128.243 17.441700000000004 128.377 17.745300000000004C128.834 18.778700000000004 129.018 21.505100000000002 127.561 24.419000000000004C126.93100000000001 25.677900000000005 126.105 26.684800000000003 125.096 27.422100000000004ZM137.294 33.7893C136.70600000000002 35.387899999999995 136.52100000000002 37.3567 136.714 39.200399999999995C136.934 41.39189999999999 137.918 43.22579999999999 139.3 44.121199999999995C139.013 44.288399999999996 138.721 44.3762 138.442 44.3762C137.93 44.3762 137.51600000000002 44.053799999999995 137.25900000000001 43.7844C136.35500000000002 42.8352 135.87300000000002 41.0637 135.973 39.0432C136.067 36.7502 136.555 34.8587 137.294 33.7893ZM141.675 38.5276C141.555 40.5725 141.09900000000002 41.8693 140.667 42.6584C139.496 41.9387 139.002 40.1556 138.941 38.7435C138.815 36.219899999999996 139.881 34.0492 140.73 33.805C140.801 33.805 140.879 33.8732 140.933 33.931C141.40099999999998 34.428999999999995 141.832 36.0794 141.67499999999998 38.5276ZM40.5741 17.2803C40.873000000000005 17.2269 41.1542 17.1994 41.4102 17.1994C41.9101 17.1994 42.5756 17.3059 42.906800000000004 17.8167C43.232800000000005 18.3197 43.187400000000004 19.129 42.787000000000006 20.026600000000002C41.47840000000001 22.7708 36.736700000000006 24.7523 32.7826 25.065800000000003C34.737700000000004 20.896700000000003 37.8066 17.807900000000004 40.5741 17.280300000000004Z " fill="#ffffff" transform="matrix(1,0,0,1,-21,-9)"></path></svg>