<svg id="SvgjsSvg1008" xmlns="http://www.w3.org/2000/svg" version="1.1" xmlns:xlink="http://www.w3.org/1999/xlink" xmlns:svgjs="http://svgjs.com/svgjs" width="17" height="17"><defs id="SvgjsDefs1009"></defs><path id="SvgjsPath1010" d="M931.155 40.747L930.3969999999999 40.747L930.1329999999999 40.4857C931.064 39.4014 931.6299999999999 37.9957 931.6299999999999 36.4558C931.6299999999999 33.032000000000004 928.8509999999999 30.2569 925.4239999999999 30.2569C921.9959999999999 30.2569 919.2179999999998 33.032000000000004 919.2179999999998 36.4558C919.2179999999998 39.8791 921.9959999999999 42.6542 925.4239999999999 42.6542C926.9649999999999 42.6542 928.3729999999998 42.089400000000005 929.4579999999999 41.16030000000001L929.7209999999999 41.422000000000004L929.7209999999999 42.1773L934.4939999999999 46.9375L935.9169999999999 45.5152ZM925.424 40.747C923.0509999999999 40.747 921.127 38.8256 921.127 36.455799999999996C921.127 34.08539999999999 923.0509999999999 32.1643 925.424 32.1643C927.797 32.1643 929.72 34.0854 929.72 36.455799999999996C929.72 38.825599999999994 927.797 40.747 925.424 40.747Z " fill="#ffffff" transform="matrix(1,0,0,1,-919,-30)"></path></svg>