<svg id="SvgjsSvg1011" xmlns="http://www.w3.org/2000/svg" version="1.1" xmlns:xlink="http://www.w3.org/1999/xlink" xmlns:svgjs="http://svgjs.com/svgjs" width="22" height="19"><defs id="SvgjsDefs1012"></defs><path id="SvgjsPath1013" d="M973 32.9683L973 32.0085C973 30.351599999999998 974.343 29.008499999999998 976 29.008499999999998L987.059 29.008499999999998C988.716 29.008499999999998 990.059 30.351599999999998 990.059 32.0085L990.059 44.9855C990.059 46.6424 988.716 47.985600000000005 987.059 47.985600000000005L976 47.985600000000005C974.343 47.985600000000005 973 46.6424 973 44.9855L973 43.999700000000004L975 43.999700000000004L975 45.9996L988 45.9996L988 30.9998L975 30.9998L975 32.9683ZM969.995 35.901L976.024 35.901L976.024 33.158L983.051 38.4576L976.024 43.7574L976.024 41.014599999999994L969.995 41.014599999999994Z " fill="#ffffff" transform="matrix(1,0,0,1,-969,-29)"></path></svg>