<svg id="SvgjsSvg1044" xmlns="http://www.w3.org/2000/svg" version="1.1" xmlns:xlink="http://www.w3.org/1999/xlink" xmlns:svgjs="http://svgjs.com/svgjs" width="48" height="49"><defs id="SvgjsDefs1045"></defs><path id="SvgjsPath1046" d="M613.482 1483.5C613.482 1496.59 624.093 1507.2 637.183 1507.2C650.272 1507.2 660.885 1496.5900000000001 660.885 1483.5C660.885 1470.41 650.2719999999999 1459.8 637.183 1459.8C624.093 1459.8 613.482 1470.4099999999999 613.482 1483.5ZM637.023 1498.33C633.273 1498.33 630.2 1495.29 630.2 1491.56C630.2 1489.94 631.022 1488.28 632.022 1486.96L632.022 1472.1200000000001C632.022 1469.39 634.2660000000001 1467.17 637.022 1467.17C639.779 1467.17 642.022 1469.39 642.022 1472.1200000000001L642.022 1487.0300000000002C643.022 1488.3100000000002 643.8000000000001 1489.9200000000003 643.8000000000001 1491.5600000000002C643.8000000000001 1495.2900000000002 640.772 1498.3300000000002 637.023 1498.3300000000002ZM641.822 1491.56C641.822 1490.08 641.068 1488.73 640.068 1487.84L640.068 1472.12C640.068 1470.4899999999998 638.694 1469.1699999999998 637.068 1469.1699999999998C635.442 1469.1699999999998 634.068 1470.4899999999998 634.068 1472.12L634.068 1487.78C633.068 1488.66 632.223 1490.05 632.223 1491.56C632.223 1494.19 634.391 1496.33 637.0229999999999 1496.33C639.656 1496.33 641.8219999999999 1494.1899999999998 641.8219999999999 1491.56ZM639.729 1491.42C639.729 1492.95 638.4870000000001 1494.19 636.955 1494.19C635.423 1494.19 634.181 1492.95 634.181 1491.42C634.181 1490.2 634.967 1489.18 636.0540000000001 1488.8100000000002L636.0540000000001 1471.9700000000003C636.0540000000001 1471.4500000000003 636.479 1471.0300000000002 637.003 1471.0300000000002C637.527 1471.0300000000002 637.952 1471.4500000000003 637.952 1471.9700000000003L637.952 1488.8400000000001C638.99 1489.2400000000002 639.729 1490.2400000000002 639.729 1491.42ZM645 1475L649 1475C649.552 1475 650 1475.45 650 1476C650 1476.55 649.552 1477 649 1477L645 1477C644.448 1477 644 1476.55 644 1476C644 1475.45 644.448 1475 645 1475ZM645 1471L649 1471C649.552 1471 650 1471.45 650 1472C650 1472.55 649.552 1473 649 1473L645 1473C644.448 1473 644 1472.55 644 1472C644 1471.45 644.448 1471 645 1471ZM645 1479L649 1479C649.552 1479 650 1479.45 650 1480C650 1480.55 649.552 1481 649 1481L645 1481C644.448 1481 644 1480.55 644 1480C644 1479.45 644.448 1479 645 1479ZM645 1483L649 1483C649.552 1483 650 1483.45 650 1484C650 1484.55 649.552 1485 649 1485L645 1485C644.448 1485 644 1484.55 644 1484C644 1483.45 644.448 1483 645 1483ZM637.183 1505.2C625.217 1505.2 615.482 1495.47 615.482 1483.5C615.482 1471.53 625.217 1461.8 637.183 1461.8C649.149 1461.8 658.885 1471.53 658.885 1483.5C658.885 1495.47 649.149 1505.2 637.183 1505.2Z " fill="#323232" transform="matrix(1,0,0,1,-613,-1459)"></path></svg>