<svg id="SvgjsSvg1035" xmlns="http://www.w3.org/2000/svg" version="1.1" xmlns:xlink="http://www.w3.org/1999/xlink" xmlns:svgjs="http://svgjs.com/svgjs" width="49" height="49"><defs id="SvgjsDefs1036"></defs><path id="SvgjsPath1037" d="M71.4995 1371.8C84.5889 1371.8 95.2012 1382.4099999999999 95.2012 1395.5C95.2012 1408.59 84.5889 1419.2 71.4995 1419.2C58.4097 1419.2 47.7984 1408.5900000000001 47.7984 1395.5C47.7984 1382.41 58.4097 1371.8 71.4995 1371.8ZM77.454 1381.45C75.83409999999999 1379.8300000000002 73.6809 1378.94 71.39049999999999 1378.94C69.09969999999998 1378.94 66.94639999999998 1379.8300000000002 65.32659999999998 1381.45C63.706699999999984 1383.07 62.81499999999998 1385.22 62.81499999999998 1387.51L62.81499999999998 1402.19C62.81499999999998 1402.64 63.177199999999985 1403 63.624099999999984 1403L79.15679999999999 1403C79.6034 1403 79.96569999999998 1402.64 79.96569999999998 1402.19L79.96569999999998 1387.51C79.96569999999998 1385.22 79.07379999999998 1383.07 77.45399999999998 1381.45ZM78.3478 1401.38L64.433 1401.38L64.433 1390.49C64.47760000000001 1390.54 64.52480000000001 1390.59 64.57570000000001 1390.65C65.00510000000001 1391.1200000000001 65.59340000000002 1391.7800000000002 66.73020000000001 1391.7800000000002C67.86720000000001 1391.7800000000002 68.45540000000001 1391.1200000000001 68.88510000000001 1390.65C69.2544 1390.23 69.43560000000001 1390.0500000000002 69.83070000000001 1390.0500000000002C69.85400000000001 1390.0600000000002 69.96700000000001 1390.14 70.1396 1390.4800000000002C70.3121 1390.8100000000002 70.4725 1391.2700000000002 70.6274 1391.7000000000003C70.8313 1392.2800000000002 71.04199999999999 1392.8700000000003 71.32469999999999 1393.3500000000004C71.74889999999999 1394.0700000000004 72.29329999999999 1394.4300000000003 72.9434 1394.4300000000003C73.5934 1394.4300000000003 74.1378 1394.0700000000004 74.5621 1393.3500000000004C74.8447 1392.8700000000003 75.0554 1392.2800000000004 75.2593 1391.7000000000003C75.4142 1391.2700000000002 75.57459999999999 1390.8100000000002 75.7475 1390.4800000000002C75.9197 1390.1400000000003 76.0331 1390.0600000000002 76.0561 1390.0500000000002C76.4512 1390.0500000000002 76.6324 1390.2300000000002 77.002 1390.65C77.31559999999999 1390.99 77.7135 1391.44 78.34779999999999 1391.65ZM69.3413 1409.96C69.3413 1411.0900000000001 70.25880000000001 1412.01 71.3905 1412.01C72.52210000000001 1412.01 73.43950000000001 1411.09 73.43950000000001 1409.96L73.43950000000001 1403.8L69.3413 1403.8ZM93.2013 1395.5C93.2013 1383.53 83.4658 1373.8 71.49950000000001 1373.8C59.53330000000001 1373.8 49.798400000000015 1383.53 49.798400000000015 1395.5C49.798400000000015 1407.47 59.53330000000001 1417.2 71.49950000000001 1417.2C83.46580000000002 1417.2 93.2013 1407.47 93.2013 1395.5Z " fill="#323232" transform="matrix(1,0,0,1,-47,-1371)"></path></svg>