<svg id="SvgjsSvg1029" xmlns="http://www.w3.org/2000/svg" version="1.1" xmlns:xlink="http://www.w3.org/1999/xlink" xmlns:svgjs="http://svgjs.com/svgjs" width="32" height="32"><defs id="SvgjsDefs1030"></defs><path id="SvgjsPath1031" d="M95.8647 2352.23C104.531 2352.23 111.556 2359.25 111.556 2367.92C111.556 2376.59 104.53099999999999 2383.61 95.8647 2383.61C87.19839999999999 2383.61 80.173 2376.59 80.173 2367.92C80.173 2359.25 87.1984 2352.23 95.8647 2352.23ZM102.136 2375.84C103.1 2375.84 103.881 2375.06 103.881 2374.09L103.881 2361.78C103.881 2360.82 103.1 2360.0400000000004 102.136 2360.0400000000004L89.8087 2360.0400000000004C88.8451 2360.0400000000004 88.0639 2360.8200000000006 88.0639 2361.78L88.06320000000001 2374.09C88.06320000000001 2375.06 88.84450000000001 2375.84 89.80810000000001 2375.84ZM102.141 2366.74L102.141 2373.52C102.141 2373.86 101.867 2374.13 101.52900000000001 2374.13L90.46410000000002 2374.13C90.12650000000002 2374.13 89.85280000000002 2373.86 89.85280000000002 2373.52L89.85280000000002 2366.74C89.85280000000002 2366.74 90.13270000000001 2366.74 91.23240000000001 2366.74C91.1299 2367.1299999999997 91.07540000000002 2367.5499999999997 91.07540000000002 2367.97C91.07540000000002 2370.6899999999996 93.27880000000002 2372.8999999999996 95.99670000000002 2372.8999999999996C98.71470000000002 2372.8999999999996 100.91800000000002 2370.6899999999996 100.91800000000002 2367.97C100.91800000000002 2367.5499999999997 100.86300000000001 2367.1299999999997 100.76100000000002 2366.74C101.64400000000002 2366.74 102.14100000000002 2366.74 102.14100000000002 2366.74ZM95.9975 2365.13C97.5652 2365.13 99.06360000000001 2366.28 99.06360000000001 2367.9700000000003C99.06360000000001 2369.6600000000003 97.5652 2370.8100000000004 95.9975 2370.8100000000004C94.4299 2370.8100000000004 93.1591 2369.5400000000004 93.1591 2367.9700000000003C93.1591 2366.4 94.42989999999999 2365.13 95.9975 2365.13ZM99.6953 2361.82L101.56 2361.82C101.898 2361.82 102.171 2362.09 102.171 2362.4300000000003L102.171 2364.2900000000004C102.171 2364.6300000000006 101.89800000000001 2364.9000000000005 101.56 2364.9000000000005L99.6953 2364.9000000000005C99.35770000000001 2364.9000000000005 99.0839 2364.6300000000006 99.0839 2364.2900000000004L99.0839 2362.4300000000003C99.0839 2362.09 99.3577 2361.82 99.6953 2361.82Z " fill="#ffffff" transform="matrix(1,0,0,1,-80,-2352)"></path></svg>