<svg id="SvgjsSvg1017" xmlns="http://www.w3.org/2000/svg" version="1.1" xmlns:xlink="http://www.w3.org/1999/xlink" xmlns:svgjs="http://svgjs.com/svgjs" width="33" height="32"><defs id="SvgjsDefs1018"></defs><path id="SvgjsPath1019" d="M46.4272 2352.17C55.0934 2352.17 62.1189 2359.19 62.1189 2367.86C62.1189 2376.52 55.093399999999995 2383.55 46.4272 2383.55C37.7609 2383.55 30.7355 2376.52 30.7355 2367.86C30.7355 2359.19 37.7609 2352.17 46.4272 2352.17ZM55.5647 2362.98C54.911500000000004 2363.27 54.209500000000006 2363.46 53.4728 2363.55C54.2248 2363.1000000000004 54.8023 2362.38 55.0742 2361.53C54.3705 2361.9500000000003 53.590999999999994 2362.25 52.7613 2362.42C52.0969 2361.71 51.1502 2361.27 50.1027 2361.27C48.0911 2361.27 46.4604 2362.9 46.4604 2364.91C46.4604 2365.2 46.4926 2365.47 46.5546 2365.74C43.5277 2365.5899999999997 40.8437 2364.14 39.0473 2361.93C38.7338 2362.47 38.5541 2363.1 38.5541 2363.77C38.5541 2365.03 39.197199999999995 2366.14 40.1746 2366.8C39.5775 2366.78 39.0158 2366.61 38.5248 2366.34C38.524499999999996 2366.36 38.524499999999996 2366.3700000000003 38.524499999999996 2366.3900000000003C38.524499999999996 2368.1500000000005 39.7799 2369.6200000000003 41.4462 2369.9600000000005C41.1406 2370.0400000000004 40.8187 2370.0900000000006 40.486599999999996 2370.0900000000006C40.2519 2370.0900000000006 40.0237 2370.0600000000004 39.8013 2370.0200000000004C40.2648 2371.4700000000003 41.609899999999996 2372.5200000000004 43.2038 2372.5500000000006C41.957300000000004 2373.5300000000007 40.386700000000005 2374.1100000000006 38.6802 2374.1100000000006C38.3863 2374.1100000000006 38.0963 2374.0900000000006 37.8114 2374.0600000000004C39.4233 2375.0900000000006 41.3378 2375.7000000000003 43.3947 2375.7000000000003C50.0942 2375.7000000000003 53.7578 2370.15 53.7578 2365.3300000000004C53.7578 2365.1700000000005 53.754200000000004 2365.0200000000004 53.74720000000001 2364.8600000000006C54.45890000000001 2364.3500000000004 55.0763 2363.7100000000005 55.56470000000001 2362.9800000000005Z " fill="#ffffff" transform="matrix(1,0,0,1,-30,-2352)"></path></svg>