<svg id="SvgjsSvg1032" xmlns="http://www.w3.org/2000/svg" version="1.1" xmlns:xlink="http://www.w3.org/1999/xlink" xmlns:svgjs="http://svgjs.com/svgjs" width="32" height="32"><defs id="SvgjsDefs1033"></defs><path id="SvgjsPath1034" d="M193.865 2352.23C202.531 2352.23 209.556 2359.25 209.556 2367.92C209.556 2376.59 202.531 2383.61 193.865 2383.61C185.198 2383.61 178.173 2376.59 178.173 2367.92C178.173 2359.25 185.198 2352.23 193.865 2352.23ZM199.075 2368.28C198.571 2367.73 197.897 2367.3700000000003 197.059 2367.19L197.059 2367.12C197.642 2366.88 198.1 2366.5 198.43 2365.98C198.763 2365.46 198.929 2364.87 198.929 2364.21C198.929 2363.64 198.807 2363.13 198.567 2362.69C198.327 2362.25 197.96200000000002 2361.9 197.476 2361.64C197.027 2361.4 196.544 2361.24 196.03 2361.16C195.516 2361.0899999999997 194.758 2361.0499999999997 193.761 2361.0499999999997L188.957 2361.0499999999997L188.957 2374.64L194.399 2374.64C195.344 2374.64 196.12 2374.56 196.731 2374.39C197.345 2374.22 197.90699999999998 2373.93 198.417 2373.5299999999997C198.851 2373.1899999999996 199.193 2372.7699999999995 199.449 2372.2599999999998C199.705 2371.7499999999995 199.83200000000002 2371.16 199.83200000000002 2370.4799999999996C199.83200000000002 2369.5599999999995 199.58 2368.8199999999997 199.07500000000002 2368.2799999999997ZM196.102 2371.3C195.958 2371.5600000000004 195.734 2371.75 195.422 2371.8900000000003C195.07 2372.0400000000004 194.721 2372.1200000000003 194.381 2372.13C194.041 2372.1400000000003 193.427 2372.15 192.539 2372.15L192.355 2372.15L192.355 2368.75L192.98499999999999 2368.75C193.59199999999998 2368.75 194.07899999999998 2368.75 194.44099999999997 2368.76C194.80199999999996 2368.7700000000004 195.08799999999997 2368.8100000000004 195.29399999999998 2368.8900000000003C195.634 2369.01 195.89 2369.1900000000005 196.06099999999998 2369.4300000000003C196.23299999999998 2369.67 196.31599999999997 2370.0000000000005 196.31599999999997 2370.42C196.31599999999997 2370.7400000000002 196.24499999999998 2371.04 196.10199999999998 2371.3ZM195.46 2364.89C195.46 2365.19 195.406 2365.45 195.303 2365.68C195.201 2365.8999999999996 195.011 2366.08 194.74 2366.21C194.49 2366.32 194.247 2366.39 194.013 2366.4C193.779 2366.4100000000003 193.368 2366.42 192.785 2366.42L192.355 2366.42L192.355 2363.54L192.59199999999998 2363.54C193.2 2363.54 193.658 2363.55 193.96599999999998 2363.55C194.27499999999998 2363.5600000000004 194.54 2363.6200000000003 194.76399999999998 2363.7200000000003C195.005 2363.82 195.17899999999997 2363.9900000000002 195.29099999999997 2364.2200000000003C195.40299999999996 2364.4500000000003 195.45999999999998 2364.67 195.45999999999998 2364.8900000000003Z " fill="#ffffff" transform="matrix(1,0,0,1,-178,-2352)"></path></svg>